<?xml version="1.0" encoding="utf-8"?>
<!-- Generator: Adobe Illustrator 25.2.3, SVG Export Plug-In . SVG Version: 6.00 Build 0)  -->
<svg version="1.1" id="Warstwa_1" xmlns="http://www.w3.org/2000/svg" xmlns:xlink="http://www.w3.org/1999/xlink" x="0px" y="0px"
	 viewBox="0 0 11 11" style="enable-background:new 0 0 11 11;" xml:space="preserve">
<style type="text/css">
	.st0{fill:#FB3B64;}
</style>
<path class="st0" d="M6.5,5.5l4.3-4.3c0.3-0.3,0.3-0.7,0-1s-0.7-0.3-1,0L5.5,4.5L1.2,0.2c-0.3-0.3-0.7-0.3-1,0s-0.3,0.7,0,1l4.3,4.3
	L0.2,9.8c-0.3,0.3-0.3,0.7,0,1s0.7,0.3,1,0l4.3-4.3l4.3,4.3c0.3,0.3,0.7,0.3,1,0s0.3-0.7,0-1L6.5,5.5z"/>
</svg>
