<?xml version="1.0" encoding="utf-8"?>
<!-- Generator: Adobe Illustrator 25.2.3, SVG Export Plug-In . SVG Version: 6.00 Build 0)  -->
<svg version="1.1" id="Warstwa_1" xmlns="http://www.w3.org/2000/svg" xmlns:xlink="http://www.w3.org/1999/xlink" x="0px" y="0px"
	 viewBox="0 0 24 24" style="enable-background:new 0 0 24 24;" xml:space="preserve">
<style type="text/css">
	.st0{fill:#55ACEE;}
	.st1{fill:#F1F2F2;}
</style>
<g transform="translate(-1412 -4026)">
	<circle class="st0" cx="1424" cy="4038.1" r="12"/>
	<path class="st1" d="M1431,4034.1c-0.5,0.2-1.1,0.4-1.7,0.4c0.6-0.4,1-0.9,1.3-1.6c-0.6,0.3-1.2,0.6-1.8,0.7
		c-1.1-1.2-2.9-1.2-4-0.1c-0.7,0.7-1,1.7-0.8,2.7c-2.3-0.1-4.5-1.2-5.9-3c-0.8,1.3-0.4,3,0.9,3.8c-0.4,0-0.9-0.1-1.3-0.4v0
		c0,1.4,1,2.5,2.3,2.8c-0.4,0.1-0.9,0.1-1.3,0c0.4,1.2,1.5,2,2.7,2c-1.2,0.9-2.7,1.4-4.2,1.2c3.8,2.4,8.8,1.3,11.3-2.5
		c0.8-1.3,1.3-2.8,1.3-4.4c0-0.1,0-0.2,0-0.4C1430.2,4035.2,1430.6,4034.7,1431,4034.1z"/>
</g>
</svg>
